<svg xmlns="http://www.w3.org/2000/svg" viewBox="0 0 1080 584.09"><defs><style>.cls-1{fill:#1f2020;}</style></defs><title>MainVisual_centence</title><g id="レイヤー_2" data-name="レイヤー 2"><g id="レイヤー_1-2" data-name="レイヤー 1"><path class="cls-1" d="M18.93,94l9.2-12.4c5.87,5.73,13.07,10.13,22,10.13,10,0,16.8-4.93,16.8-13.73,0-9.73-5.73-15.73-27.2-15.73V48.11c18.14,0,24-6.26,24-15.06,0-7.73-4.8-12.27-13.2-12.4-7.06.13-12.8,3.47-18.66,8.8l-10-12C30.4,10,39.87,5.32,51.47,5.32c19.06,0,32,9.33,32,26.26,0,10.67-6,18.4-16.53,22.53v.67c11.2,3.07,19.73,11.33,19.73,24.27,0,18.13-15.86,28.66-34.66,28.66C36.4,107.71,25.87,101.85,18.93,94Z"/><path class="cls-1" d="M119.46,7.18h27.07c30.13,0,48.79,15.6,48.79,48.93s-18.66,49.73-47.73,49.73H119.46ZM145.33,90c18.4,0,29.86-9.87,29.86-33.87s-11.46-33.19-29.86-33.19h-6.14V90Z"/><path class="cls-1" d="M281.72,88.8c.27-3.87.4-10,.53-15.74-9.73,5.34-15.06,10.54-15.06,17.07,0,7.33,6.26,9.33,19.19,9.33a202,202,0,0,0,37.47-3.87l-.53,17.2A364.34,364.34,0,0,1,286,114.93c-20.66,0-36.26-4.94-36.26-22,0-16.8,16-27.47,31.07-35.2-2.14-3.33-5.6-4.53-9.2-4.53-7.47,0-15.6,4.26-20.67,9.06-4,4-7.73,8.8-12.27,14.54L224.52,66.26c13.87-12.8,23.2-24.53,29.07-36.26H252c-5.34,0-15.07-.27-22.27-.93V13.6a168.89,168.89,0,0,0,23.2,1.47h6.4A74,74,0,0,0,262,0l17.33,1.47c-.67,3.2-1.6,7.73-3.2,13.06,12.4-.66,25.73-1.73,37.33-3.86l-.13,15.46c-12.67,1.87-28.93,2.94-43.07,3.47a80.79,80.79,0,0,1-7.6,13.33c3.47-1.73,10.54-2.67,14.94-2.67,8,0,14.66,3.47,17.59,10.27,6.8-3.2,12.4-5.47,17.87-7.87,5.07-2.26,9.73-4.53,14.53-6.8l6.67,15.34a137.55,137.55,0,0,0-15.73,5.6c-5.87,2.26-13.34,5.2-21.47,8.93.13,7.33.4,17.07.53,23.07Z"/><path class="cls-1" d="M395.18,115a249.42,249.42,0,0,0-28.67-29.46l13.87-12a249.19,249.19,0,0,1,29.07,29.2Z"/><path class="cls-1" d="M70.4,229.31c-.14,2.13-.27,4.8-.4,7.6,1.06,18.4,7.73,75.86,57.46,99.19a52.38,52.38,0,0,0-12.27,13.47c-30.13-14.93-45.06-42.4-52.53-66.93-7.2,24-21.2,49.73-49.33,66.93-2.8-4.13-8-8.93-13.33-12.67,53.2-29.46,51.33-90,52.26-107.59Z"/><path class="cls-1" d="M198.66,340.37c9.06-4,19.06-10.8,24.13-16.53l12.93,8.26c-6.66,6.94-18,14.54-27.46,18.67a89,89,0,0,0-10-10l-1.47,1.6c-3.73-3.73-10.67-9.2-17.33-14.13-4.27,7.86-11.74,15.06-24.8,20.66-1.47-3.46-5.6-8.93-8.4-11.73,16.13-6.53,21.73-15.73,23.46-24.53h-20V299h20.79V290h14.27V299h22.27v13.6H184.39c-.13.8-.27,1.73-.4,2.53,7.73,4.93,17.6,11.87,22.67,16.53Zm-27.74-65.73A70.2,70.2,0,0,1,156,289.31,60.79,60.79,0,0,0,146.93,279c7.06-3.87,14.4-10.67,19.59-17.73H149.73v-12.4h21.19V227.84h13.74v21.07h21.46v12.4h-21.2c5.47,2.8,19.34,11.06,22.94,13.46l-8.27,11.07c-3.33-3.2-9.47-8-14.93-12.27v13.6H170.92Zm-13.86-26c-.67-4.27-3.33-10.67-6.27-15.6l10.67-4c2.93,4.8,5.86,10.93,6.8,15.2ZM206.66,232c-3.2,6.13-6.27,12-8.94,16.13l-10.13-3.34a91.45,91.45,0,0,0,6-16.26ZM228,253.44c.8-2.8,1.33-5.73,1.86-8.53H207.59V231.44h63.2v13.47H246.92c-1.2,2.93-2.4,5.86-3.47,8.53h24V323.7h-56V253.44Zm24.4,11.87H225.72v8.13h26.67Zm0,19.06H225.72v8.14h26.67Zm0,19.2H225.72V312h26.67Zm-.4,21.2c7.2,4.93,17.2,12.27,22.13,17.33l-12,8.54c-4.4-5.07-14-12.8-21.33-18.14Z"/><path class="cls-1" d="M352.78,329c5.07-.67,8.8-1.34,12.27-2.14,16.93-4,30-16.13,30-35.33,0-18.26-9.87-31.86-27.6-34.93a286.44,286.44,0,0,1-7.87,35.87c-7.86,26.66-19.33,42.93-33.73,42.93S298.92,319.3,298.92,297c0-30.4,26.53-56.53,60.8-56.53,32.66,0,53.33,22.8,53.33,51.6,0,27.73-17.07,47.46-50.4,52.53Zm-10.26-40a212.76,212.76,0,0,0,7.06-32c-21.86,4.53-33.46,23.73-33.46,38.26,0,13.34,5.33,19.87,10.26,19.87C331.85,315.17,337.18,306.9,342.52,289Z"/><path class="cls-1" d="M105.65,499.43c-.67,1.47-1.6,4.27-2.4,6.8,15.33,5.07,25.46,16.93,25.46,32.4,0,18.53-11.06,36.8-43.46,41.6l-8.8-13.87c25.46-2.8,35.86-15.6,35.86-28.53,0-8-4.66-15.07-13.6-18.53-7.33,18-17.86,31.73-27.86,40,.93,3.47,2,6.67,3.07,9.87l-15.2,4.53c-.54-1.6-1.2-3.46-1.74-5.33-6.4,3.2-13.46,5.33-20.4,5.33-9.73,0-17.86-5.86-17.86-19.33,0-16.8,14-34.66,32.4-43.33.4-5.6.8-11.2,1.33-16.53H48.18c-6.93,0-17.2-.54-23.33-.8l-.53-15.33a218.44,218.44,0,0,0,24.4,1.73h5.06l.8-7.07a51.38,51.38,0,0,0,.4-7.86l17.34.4a50.11,50.11,0,0,0-1.87,7.06c-.53,2.14-.93,4.54-1.33,7.07a219.62,219.62,0,0,0,44.79-5.6l.14,15.2c-12.94,2.4-30.67,4-46.93,4.8-.4,3.86-.8,7.86-.94,11.86a89.22,89.22,0,0,1,19.74-2.4h2.26a73.63,73.63,0,0,0,1.2-7.86Zm-52,53.86a183.91,183.91,0,0,1-2.8-26.39c-9.87,6.66-16.53,16.8-16.53,24.26,0,4.13,1.86,6.4,6.13,6.4C44.18,557.56,48.72,556.09,53.65,553.29Zm12-33.06a153.11,153.11,0,0,0,1.47,21.87A75.44,75.44,0,0,0,83.78,517,64.38,64.38,0,0,0,65.65,520Z"/><path class="cls-1" d="M193.38,522.9a64.71,64.71,0,0,1,38.79-12.54c23.2,0,36.67,14.27,36.67,30.27,0,24.13-19.07,42.66-74,37.86l-5.06-17.33c39.59,5.6,60.53-4.13,60.53-20.93,0-8.53-8.14-14.8-19.74-14.8-14.93,0-28.13,5.47-36.39,15.47a28.62,28.62,0,0,0-4.94,7.73l-15.33-3.87a481.34,481.34,0,0,0,6.53-55.06l17.87,2.4C196.58,499.43,194.31,515.3,193.38,522.9Zm4.13-57.33c12.53,3.86,41.2,8.93,52.8,10.26l-4,16.27c-13.34-1.74-42.8-7.87-53.07-10.53Z"/><path class="cls-1" d="M380.83,496.23C373,498,364,499.43,355.24,500.5c-1.2,5.73-2.54,11.6-4,16.93C346.44,536,337.5,563,330.3,578.49l-18.53-6.13c7.87-13.2,17.87-40.93,22.8-59.46.93-3.47,1.87-7.2,2.8-10.94-3.07.14-6,.27-8.67.27-6.4,0-11.33-.27-16-.53l-.4-16.54A130.06,130.06,0,0,0,329,486.23c3.87,0,7.73-.13,11.73-.4q.81-4.4,1.2-7.6a68.85,68.85,0,0,0,.54-13.33l20.13,1.6c-.93,3.6-2.13,9.47-2.8,12.4L358.7,484c7.47-1.2,14.93-2.66,22.13-4.39Zm-2.66,43.33a45.48,45.48,0,0,0-1.87,11.07c0,5.73,3.33,10,17.47,10A153.27,153.27,0,0,0,421.23,558l-.66,16.93a210.07,210.07,0,0,1-26.94,1.87c-22.26,0-33.59-7.73-33.59-21.07a91,91,0,0,1,2.26-17.59Zm-7.74-33.2c7.34-.66,16.8-1.33,25.34-1.33a229.44,229.44,0,0,1,23.2,1.2l-.4,15.87a190.88,190.88,0,0,0-22.67-1.6A195.27,195.27,0,0,0,370.43,522Z"/><path class="cls-1" d="M522.56,494.76a193.29,193.29,0,0,1-22.93,4.54c-6.27,18.53-17.6,41.46-28.27,56.53l-16.13-8.14C465.9,534.76,476.3,515.3,482.16,501c-2.26.13-4.53.13-6.8.13-5.46,0-10.8-.13-16.53-.4l-1.2-15.46a169.57,169.57,0,0,0,17.6.93c3.87,0,7.87-.13,11.87-.4a113.1,113.1,0,0,0,3.6-22.13L509,465.57c-1.07,4.26-2.67,10.93-4.53,18a139.94,139.94,0,0,0,17.73-4.14Zm17.33,11.87c-.4,5.6-.13,11.07,0,16.93.14,3.74.4,10.14.8,16.67A87.66,87.66,0,0,1,568,557.16l-8.79,14.13a118.18,118.18,0,0,0-17.87-14v1.2c0,12.27-6.67,21.87-25.47,21.87-16.39,0-29.33-7.33-29.33-21.87,0-12.93,10.8-22.93,29.2-22.93,3.07,0,6.13.27,8.93.54-.4-9.87-1.06-21.47-1.46-29.47Zm-14.53,43.73A46.74,46.74,0,0,0,514.69,549c-7.6,0-12.53,3.2-12.53,7.86,0,4.94,4.13,8.27,11.33,8.27,8.94,0,11.87-5.2,11.87-12.27Zm37.2-36.66c-7.6-6.14-22.67-14.8-31.73-18.8l8.53-13.07c9.47,4.13,25.87,13.07,32.53,17.87Z"/><path class="cls-1" d="M719.88,484.36v13.47H599.22V484.36ZM617.89,541h83.46v42.53H685v-4.27H633.49V584h-15.6Zm81.2-24.8H620.16V503.7h78.93Zm-78.93,6.13h78.93v12.4H620.16Zm76.66-44H622.69V466h74.13Zm-63.33,75.86v12H685v-12Z"/><path class="cls-1" d="M793.21,494.63H743.75V482.1h49.46Zm-3.86,84.13H763V584H749.62V538.5h39.73ZM788.41,513H750V501.16h38.39ZM750,519.7h38.39v12H750Zm38.39-44H750.82v-12h37.59ZM763,551v15.2h12.8V551ZM868.68,513.3v13.86H792.41V513.3h16.4c.8-4.14,1.6-8.8,2.4-13.6H799.48V486.23h13.87c.4-3.2.93-6.26,1.33-9.33H797.35V463.3h66.79v13.6h-34l-1.34,9.33h28.67V513.3ZM802,534.23h58.4v49.33h-15.6v-4.67H817v5.2H802ZM817,548.36v16.53h27.86V548.36Zm9.6-48.66c-.8,4.8-1.6,9.46-2.4,13.6h18V499.7Z"/><path class="cls-1" d="M925.47,470.77a113.76,113.76,0,0,0-3.2,11.73c-1.86,8.8-6.4,35.2-6.4,48.4a63.75,63.75,0,0,0,.54,8.53c1.86-4.67,4-9.07,5.86-13.33l8.27,6.4c-3.73,11.06-8.13,25.33-9.47,32.39a38.81,38.81,0,0,0-.8,6.14c.14,1.46.14,3.6.27,5.46l-15.2,1.07c-2.66-9.2-5.2-25.33-5.2-43.2,0-19.86,4-42.13,5.47-52.26a99.19,99.19,0,0,0,1.33-12.93ZM956.41,536a43.35,43.35,0,0,0-1.6,11.07c0,5.86,5.06,9.33,18.4,9.33a152.18,152.18,0,0,0,33.06-3.47l.4,17.87c-8.53,1.6-19.2,2.67-34.13,2.67-22.8,0-33.6-8.27-33.6-21.74a80.9,80.9,0,0,1,2.27-17.19Zm46.13-56.53V496.5a367.15,367.15,0,0,1-56.67,0l-.13-17.07C962,481.7,988.27,481.17,1002.54,479.43Z"/><path class="cls-1" d="M1080,561a21.53,21.53,0,1,1-21.6-21.6A21.6,21.6,0,0,1,1080,561Zm-9.6,0a11.93,11.93,0,1,0-12,11.86A11.95,11.95,0,0,0,1070.4,561Z"/></g></g></svg>
