<svg xmlns="http://www.w3.org/2000/svg" width="102.232" height="87.913" viewBox="0 0 102.232 87.913"><defs><style>.a{fill:#eee;stroke-linejoin:round;}.a,.b{stroke:#000;stroke-linecap:round;stroke-miterlimit:10;stroke-width:2px;}.b{fill:#fff;}</style></defs><g transform="translate(1 1)"><path class="a" d="M300,281.8h0a35.8,35.8,0,0,0,35.8,35.8h7.16v14.319l14.319-14.319h7.159a35.8,35.8,0,0,0,35.8-35.8h0a35.8,35.8,0,0,0-35.8-35.8H335.8A35.8,35.8,0,0,0,300,281.8Z" transform="translate(-300 -246)"/><ellipse class="b" cx="4.557" cy="4.557" rx="4.557" ry="4.557" transform="translate(45.559 31.274)"/><ellipse class="b" cx="4.557" cy="4.557" rx="4.557" ry="4.557" transform="translate(61.712 31.274)"/><ellipse class="b" cx="4.557" cy="4.557" rx="4.557" ry="4.557" transform="translate(29.406 31.274)"/></g></svg>