<svg xmlns="http://www.w3.org/2000/svg" width="107.789" height="87.879" viewBox="0 0 107.789 87.879"><defs><style>.a,.b{fill:#eee;}.a,.b,.c{stroke:#000;stroke-linecap:round;stroke-miterlimit:10;stroke-width:2px;}.b,.c{stroke-linejoin:round;}.c{fill:#fff;}</style></defs><g transform="translate(1 1)"><circle class="a" cx="14.701" cy="14.701" r="14.701" transform="translate(0 0)"/><path class="b" d="M14.7,0h0A14.7,14.7,0,0,1,29.4,14.7V56.348a0,0,0,0,1,0,0H0a0,0,0,0,1,0,0V14.7A14.7,14.7,0,0,1,14.7,0Z" transform="translate(0 29.402)"/><circle class="a" cx="14.701" cy="14.701" r="14.701" transform="translate(35.105 0)"/><path class="b" d="M14.7,0h0A14.7,14.7,0,0,1,29.4,14.7V56.348a0,0,0,0,1,0,0H0a0,0,0,0,1,0,0V14.7A14.7,14.7,0,0,1,14.7,0Z" transform="translate(35.105 29.402)"/><circle class="a" cx="14.701" cy="14.701" r="14.701" transform="translate(70.211 0)"/><path class="b" d="M14.7,0h0A14.7,14.7,0,0,1,29.4,14.7V56.348a0,0,0,0,1,0,0H0a0,0,0,0,1,0,0V14.7A14.7,14.7,0,0,1,14.7,0Z" transform="translate(70.211 29.402)"/><path class="c" d="M638.429,313.372H616.456V300.026l-34.911,28.239L616.456,356.5V343.157h21.973Z" transform="translate(-532.64 -270.623)"/></g></svg>