<svg xmlns="http://www.w3.org/2000/svg" xmlns:xlink="http://www.w3.org/1999/xlink" viewBox="0 0 132.71 132.71"><defs><style>.cls-1{fill:#5e2a06;}.cls-2{fill:url(#名称未設定グラデーション_25);}.cls-3{fill:#333;}.cls-4{fill:#282929;}</style><radialGradient id="名称未設定グラデーション_25" cx="66.36" cy="66.36" r="62.12" gradientUnits="userSpaceOnUse"><stop offset="0" stop-color="#c26c1c"/><stop offset="0.31" stop-color="#a85d11" stop-opacity="0.84"/><stop offset="0.61" stop-color="#925108" stop-opacity="0.71"/><stop offset="0.85" stop-color="#844a02" stop-opacity="0.63"/><stop offset="1" stop-color="#7f4700" stop-opacity="0.6"/></radialGradient></defs><title>eye</title><g id="レイヤー_2" data-name="レイヤー 2"><g id="レイヤー_1-2" data-name="レイヤー 1"><circle class="cls-1" cx="66.36" cy="66.36" r="66.36"/><polygon class="cls-2" points="66.36 35.2 71.25 4.24 71.23 35.59 80.9 5.77 75.98 36.73 90.2 8.79 80.5 38.6 98.91 13.23 84.67 41.15 106.82 18.98 88.39 44.33 113.74 25.89 91.56 48.05 119.48 33.8 94.12 52.21 123.92 42.51 95.99 56.73 126.94 51.81 97.13 61.48 128.47 61.47 97.51 66.36 128.47 71.25 97.13 71.23 126.94 80.9 95.99 75.98 123.92 90.2 94.12 80.5 119.48 98.91 91.56 84.67 113.74 106.82 88.39 88.39 106.82 113.74 84.67 91.56 98.91 119.48 80.5 94.12 90.2 123.92 75.98 95.99 80.9 126.94 71.23 97.13 71.25 128.47 66.36 97.51 61.47 128.47 61.48 97.13 51.81 126.94 56.73 95.99 42.51 123.92 52.21 94.12 33.8 119.48 48.05 91.56 25.89 113.74 44.33 88.39 18.98 106.82 41.15 84.67 13.23 98.91 38.6 80.5 8.79 90.2 36.73 75.98 5.77 80.9 35.59 71.23 4.24 71.25 35.2 66.36 4.24 61.47 35.59 61.48 5.77 51.81 36.73 56.73 8.79 42.51 38.6 52.21 13.23 33.8 41.15 48.05 18.98 25.89 44.33 44.33 25.89 18.98 48.05 41.15 33.8 13.23 52.21 38.6 42.51 8.79 56.73 36.73 51.81 5.77 61.48 35.59 61.47 4.24 66.36 35.2"/><circle class="cls-3" cx="66.36" cy="66.36" r="27.97"/><circle class="cls-4" cx="66.36" cy="66.36" r="22.03"/></g></g></svg>